<mxfile host="app.diagrams.net" modified="2024-03-11T10:37:00.916Z" agent="Mozilla/5.0 (Windows NT 10.0; Win64; x64; rv:123.0) Gecko/20100101 Firefox/123.0" etag="tpIcQ8crJWmgZxvkCX8r" version="24.0.4" type="github">
  <diagram name="第 1 页" id="u0s4evxgeO5GkAvL17LF">
    <mxGraphModel dx="1130" dy="1579" grid="1" gridSize="10" guides="1" tooltips="1" connect="1" arrows="1" fold="1" page="1" pageScale="1" pageWidth="1600" pageHeight="900" math="0" shadow="0">
      <root>
        <mxCell id="0" />
        <mxCell id="1" parent="0" />
        <mxCell id="WTQIN2awekwh78GTf_UN-3" style="edgeStyle=orthogonalEdgeStyle;rounded=0;orthogonalLoop=1;jettySize=auto;html=1;exitX=0.5;exitY=1;exitDx=0;exitDy=0;entryX=0.5;entryY=0;entryDx=0;entryDy=0;" edge="1" parent="1" source="WTQIN2awekwh78GTf_UN-1" target="WTQIN2awekwh78GTf_UN-2">
          <mxGeometry relative="1" as="geometry" />
        </mxCell>
        <mxCell id="WTQIN2awekwh78GTf_UN-1" value="ITLB/DTLB Repeater" style="rounded=0;whiteSpace=wrap;html=1;" vertex="1" parent="1">
          <mxGeometry x="670" y="190" width="120" height="60" as="geometry" />
        </mxCell>
        <mxCell id="WTQIN2awekwh78GTf_UN-2" value="Page Cache" style="rounded=0;whiteSpace=wrap;html=1;" vertex="1" parent="1">
          <mxGeometry x="670" y="320" width="120" height="60" as="geometry" />
        </mxCell>
        <mxCell id="WTQIN2awekwh78GTf_UN-8" value="" style="endArrow=none;html=1;rounded=0;exitX=1;exitY=0;exitDx=0;exitDy=0;entryX=0;entryY=0;entryDx=0;entryDy=0;" edge="1" parent="1" source="WTQIN2awekwh78GTf_UN-2" target="WTQIN2awekwh78GTf_UN-19">
          <mxGeometry width="50" height="50" relative="1" as="geometry">
            <mxPoint x="830" y="250" as="sourcePoint" />
            <mxPoint x="880" y="200" as="targetPoint" />
          </mxGeometry>
        </mxCell>
        <mxCell id="WTQIN2awekwh78GTf_UN-18" value="" style="endArrow=none;html=1;rounded=0;exitX=1;exitY=1;exitDx=0;exitDy=0;entryX=0;entryY=1;entryDx=0;entryDy=0;" edge="1" parent="1" source="WTQIN2awekwh78GTf_UN-2" target="WTQIN2awekwh78GTf_UN-19">
          <mxGeometry width="50" height="50" relative="1" as="geometry">
            <mxPoint x="830" y="520" as="sourcePoint" />
            <mxPoint x="880" y="470" as="targetPoint" />
          </mxGeometry>
        </mxCell>
        <mxCell id="WTQIN2awekwh78GTf_UN-29" style="edgeStyle=orthogonalEdgeStyle;orthogonalLoop=1;jettySize=auto;html=1;exitX=0.25;exitY=1;exitDx=0;exitDy=0;entryX=0.5;entryY=0;entryDx=0;entryDy=0;" edge="1" parent="1" source="WTQIN2awekwh78GTf_UN-19" target="WTQIN2awekwh78GTf_UN-34">
          <mxGeometry relative="1" as="geometry">
            <mxPoint x="710" y="520" as="targetPoint" />
          </mxGeometry>
        </mxCell>
        <mxCell id="WTQIN2awekwh78GTf_UN-31" value="&lt;div&gt;L1 hit / miss&lt;/div&gt;" style="edgeLabel;html=1;align=center;verticalAlign=middle;resizable=0;points=[];" vertex="1" connectable="0" parent="WTQIN2awekwh78GTf_UN-29">
          <mxGeometry x="0.0232" y="-1" relative="1" as="geometry">
            <mxPoint x="-7" y="-4" as="offset" />
          </mxGeometry>
        </mxCell>
        <mxCell id="WTQIN2awekwh78GTf_UN-19" value="" style="swimlane;startSize=0;rounded=0;" vertex="1" parent="1">
          <mxGeometry x="870" y="250" width="200" height="200" as="geometry">
            <mxRectangle x="360" y="130" width="50" height="40" as="alternateBounds" />
          </mxGeometry>
        </mxCell>
        <mxCell id="WTQIN2awekwh78GTf_UN-4" value="L1" style="shape=internalStorage;whiteSpace=wrap;html=1;backgroundOutline=1;rounded=0;" vertex="1" parent="WTQIN2awekwh78GTf_UN-19">
          <mxGeometry x="35" y="35" width="60" height="60" as="geometry" />
        </mxCell>
        <mxCell id="WTQIN2awekwh78GTf_UN-5" value="L2" style="shape=internalStorage;whiteSpace=wrap;html=1;backgroundOutline=1;rounded=0;" vertex="1" parent="WTQIN2awekwh78GTf_UN-19">
          <mxGeometry x="105" y="35" width="60" height="60" as="geometry" />
        </mxCell>
        <mxCell id="WTQIN2awekwh78GTf_UN-6" value="L3" style="shape=internalStorage;whiteSpace=wrap;html=1;backgroundOutline=1;rounded=0;" vertex="1" parent="WTQIN2awekwh78GTf_UN-19">
          <mxGeometry x="35" y="105" width="60" height="60" as="geometry" />
        </mxCell>
        <mxCell id="WTQIN2awekwh78GTf_UN-7" value="&lt;div&gt;SP&lt;/div&gt;" style="shape=internalStorage;whiteSpace=wrap;html=1;backgroundOutline=1;rounded=0;" vertex="1" parent="WTQIN2awekwh78GTf_UN-19">
          <mxGeometry x="105" y="105" width="60" height="60" as="geometry" />
        </mxCell>
        <mxCell id="WTQIN2awekwh78GTf_UN-22" value="同时查询" style="text;html=1;align=center;verticalAlign=middle;whiteSpace=wrap;rounded=0;" vertex="1" parent="WTQIN2awekwh78GTf_UN-19">
          <mxGeometry x="70" width="60" height="30" as="geometry" />
        </mxCell>
        <mxCell id="WTQIN2awekwh78GTf_UN-23" style="edgeStyle=orthogonalEdgeStyle;rounded=0;orthogonalLoop=1;jettySize=auto;html=1;exitX=0.5;exitY=0;exitDx=0;exitDy=0;entryX=1;entryY=0.5;entryDx=0;entryDy=0;" edge="1" parent="1" source="WTQIN2awekwh78GTf_UN-22" target="WTQIN2awekwh78GTf_UN-1">
          <mxGeometry relative="1" as="geometry" />
        </mxCell>
        <mxCell id="WTQIN2awekwh78GTf_UN-24" value="&lt;div&gt;L3 Hit/SP Hit&lt;/div&gt;" style="edgeLabel;html=1;align=center;verticalAlign=middle;resizable=0;points=[];rounded=0;" vertex="1" connectable="0" parent="WTQIN2awekwh78GTf_UN-23">
          <mxGeometry x="-0.0378" y="-1" relative="1" as="geometry">
            <mxPoint as="offset" />
          </mxGeometry>
        </mxCell>
        <mxCell id="WTQIN2awekwh78GTf_UN-27" value="&lt;div&gt;查询&lt;/div&gt;" style="text;html=1;align=center;verticalAlign=middle;resizable=0;points=[];autosize=1;strokeColor=none;fillColor=none;rounded=0;" vertex="1" parent="1">
          <mxGeometry x="805" y="335" width="50" height="30" as="geometry" />
        </mxCell>
        <mxCell id="WTQIN2awekwh78GTf_UN-35" style="edgeStyle=orthogonalEdgeStyle;orthogonalLoop=1;jettySize=auto;html=1;exitX=0;exitY=0.5;exitDx=0;exitDy=0;entryX=0;entryY=0.5;entryDx=0;entryDy=0;" edge="1" parent="1">
          <mxGeometry relative="1" as="geometry">
            <mxPoint x="670.0000000000002" y="220" as="targetPoint" />
            <mxPoint x="650" y="600" as="sourcePoint" />
            <Array as="points">
              <mxPoint x="360" y="600" />
              <mxPoint x="360" y="220" />
            </Array>
          </mxGeometry>
        </mxCell>
        <mxCell id="WTQIN2awekwh78GTf_UN-36" value="check_pte" style="edgeLabel;html=1;align=center;verticalAlign=middle;resizable=0;points=[];" vertex="1" connectable="0" parent="WTQIN2awekwh78GTf_UN-35">
          <mxGeometry x="-0.6939" y="1" relative="1" as="geometry">
            <mxPoint as="offset" />
          </mxGeometry>
        </mxCell>
        <mxCell id="WTQIN2awekwh78GTf_UN-37" value="大页/Page fault" style="edgeLabel;html=1;align=center;verticalAlign=middle;resizable=0;points=[];" vertex="1" connectable="0" parent="WTQIN2awekwh78GTf_UN-35">
          <mxGeometry x="0.0242" y="-3" relative="1" as="geometry">
            <mxPoint as="offset" />
          </mxGeometry>
        </mxCell>
        <mxCell id="WTQIN2awekwh78GTf_UN-38" style="edgeStyle=orthogonalEdgeStyle;orthogonalLoop=1;jettySize=auto;html=1;exitX=0;exitY=0.25;exitDx=0;exitDy=0;" edge="1" parent="1" source="WTQIN2awekwh78GTf_UN-34">
          <mxGeometry relative="1" as="geometry">
            <mxPoint x="560" y="550" as="targetPoint" />
          </mxGeometry>
        </mxCell>
        <mxCell id="WTQIN2awekwh78GTf_UN-34" value="PTW(FSM)" style="rounded=0;whiteSpace=wrap;html=1;" vertex="1" parent="1">
          <mxGeometry x="650" y="570" width="120" height="60" as="geometry" />
        </mxCell>
        <mxCell id="WTQIN2awekwh78GTf_UN-39" value="&lt;div&gt;Refill Page Cache&lt;/div&gt;&lt;div&gt;(refill info)&lt;/div&gt;" style="text;html=1;align=center;verticalAlign=middle;resizable=0;points=[];autosize=1;strokeColor=none;fillColor=none;" vertex="1" parent="1">
          <mxGeometry x="500" y="510" width="120" height="40" as="geometry" />
        </mxCell>
      </root>
    </mxGraphModel>
  </diagram>
</mxfile>
